<mxfile host="app.diagrams.net" modified="2024-01-13T14:42:23.401Z" agent="Mozilla/5.0 (Windows NT 10.0; Win64; x64; rv:121.0) Gecko/20100101 Firefox/121.0" version="22.1.18" etag="8VoT-GR-DUG4XeF-qYSE" type="github">
  <diagram name="Page-1" id="31eiuTFBW4XZVw0JxpXs">
    <mxGraphModel>
      <root>
        <mxCell id="0" />
        <mxCell id="1" parent="0" />
      </root>
    </mxGraphModel>
  </diagram>
</mxfile>
